<?xml version="1.0" encoding="utf-8"?>
<!-- Generator: Adobe Illustrator 16.0.4, SVG Export Plug-In . SVG Version: 6.00 Build 0)  -->
<!DOCTYPE svg PUBLIC "-//W3C//DTD SVG 1.1//EN" "http://www.w3.org/Graphics/SVG/1.1/DTD/svg11.dtd">
<svg version="1.1" id="Layer_1" xmlns="http://www.w3.org/2000/svg" xmlns:xlink="http://www.w3.org/1999/xlink" x="0px" y="0px"
	 width="216px" height="216px" viewBox="0.02 0.218 216 216" enable-background="new 0.02 0.218 216 216" xml:space="preserve">
<g id="f2e1ba10-0d6f-da6e-dc76-6c9d25323f51" transform="matrix(0.3685760861480801,0,0,0.3685760861480801,94.8465385453971,58.12195682055789)">
	<g>
		<path fill="#FFFFFF" d="M266.434-102.705c-50.954-6.801-147.372,79.325-158.857,86.814c-18.511-8.33-38.016-13.432-58.356-13.18
			H27.087c-20.342-0.258-39.841,4.846-58.358,13.18c-12.267-7.999-113.814-88.171-164.765-81.37
			c-28.389,3.782,9.422,162.566,25.636,195.984c-30.906,44.954-31.826,123.408,29.08,183.471
			c69.063,68.128,175.968,92.728,175.968,92.728h6.999c0,0,106.912-24.6,175.97-92.728c60.924-60.063,59.989-138.51,29.087-183.471
			C262.926,65.305,294.827-98.919,266.434-102.705z M-113.602,143.085c72.842-28.386,82.303,40.682,82.303,40.682
			C-104.146,226.337-113.602,143.085-113.602,143.085z M36.044,270.155c33.573-4.431,30.144,11.796,30.144,11.796
			c-16.372-8.045-20.983,1.339-20.983,1.339c0.889,14.427-3.573,18.902-9.079,18.902c-5.613,0-11.017-5.956-9.378-18.902
			c0,0-3.964-9.565-20.796-2.419C5.951,280.879,5.019,264.095,36.044,270.155z M-3.272,343.607
			c39.788-5.604,36.728-34.166,36.728-34.166c0.735,32.931,37.651,38.297,37.651,38.297C24.374,340.305-3.272,343.607-3.272,343.607
			z M96.773,186.75c0,0,9.462-69.062,82.303-40.677C179.081,146.072,169.628,229.329,96.773,186.75z"/>
	</g>
</g>
</svg>
