<?xml version="1.0" standalone="no"?>
<!DOCTYPE svg PUBLIC "-//W3C//DTD SVG 20010904//EN"
 "http://www.w3.org/TR/2001/REC-SVG-20010904/DTD/svg10.dtd">
<svg version="1.0" xmlns="http://www.w3.org/2000/svg"
 width="700.000000pt" height="700.000000pt" viewBox="0 0 700.000000 700.000000"
 preserveAspectRatio="xMidYMid meet">
<metadata>
Created by potrace 1.11, written by Peter Selinger 2001-2013
</metadata>
<g transform="translate(0.000000,700.000000) scale(0.100000,-0.100000)"
fill="#000000" stroke="none">
<path d="M6070 6344 c-166 -27 -337 -95 -595 -234 -44 -23 -87 -48 -95 -55 -8
-7 -31 -21 -50 -31 -38 -21 -261 -170 -350 -235 -30 -22 -69 -50 -87 -62 -40
-28 -155 -116 -303 -232 -242 -191 -232 -184 -252 -174 -75 40 -338 118 -458
136 -94 14 -645 10 -734 -6 -97 -16 -275 -68 -373 -109 l-72 -30 -168 121
c-569 408 -999 658 -1341 777 -157 55 -276 78 -392 76 -83 -1 -91 -3 -118 -29
-30 -28 -50 -80 -61 -152 -13 -92 -5 -396 14 -525 2 -14 7 -50 10 -80 4 -30
13 -93 21 -140 8 -47 17 -101 20 -120 3 -19 9 -51 14 -70 5 -19 11 -48 14 -65
18 -103 62 -300 97 -434 22 -86 42 -167 45 -181 3 -14 14 -54 25 -90 11 -36
38 -121 59 -190 21 -69 52 -157 69 -197 l30 -72 -25 -36 c-32 -48 -87 -156
-118 -232 -37 -95 -54 -156 -82 -303 -3 -14 -7 -36 -10 -50 -10 -45 -12 -344
-4 -400 5 -30 11 -74 14 -97 25 -199 147 -510 276 -708 326 -499 979 -963
1795 -1275 282 -108 560 -192 644 -193 105 -1 497 127 871 285 239 101 614
306 815 446 246 171 484 385 620 557 22 28 43 52 46 55 18 16 133 199 176 280
191 367 251 752 178 1158 -21 117 -96 314 -165 432 l-51 89 20 43 c23 51 70
196 106 328 26 95 118 511 129 584 4 21 8 48 11 60 3 12 7 35 10 51 3 17 11
68 19 115 14 79 26 167 32 215 1 11 4 40 8 65 3 25 8 72 11 105 3 33 8 74 11
90 10 62 13 453 3 520 -17 119 -52 195 -99 215 -38 16 -126 17 -210 4z m-3867
-2858 c26 -3 65 -13 85 -22 20 -8 37 -14 37 -13 0 1 20 -8 45 -21 102 -52 200
-159 259 -285 35 -73 73 -203 65 -217 -9 -14 -139 -75 -222 -104 -104 -36
-217 -47 -310 -31 -55 9 -154 61 -206 108 -51 46 -133 162 -155 220 -7 19 -19
48 -27 65 -15 34 -54 189 -54 215 0 11 22 23 73 38 96 30 120 36 197 48 19 3
36 6 37 7 4 3 132 -3 176 -8z m2775 -40 c5 -3 27 -8 47 -12 40 -6 173 -49 183
-58 3 -3 0 -31 -7 -61 -7 -30 -13 -58 -13 -62 -1 -17 -52 -151 -74 -194 -68
-136 -148 -219 -263 -272 -88 -42 -215 -47 -336 -16 -78 21 -285 111 -285 124
0 24 35 139 55 183 14 29 25 55 25 58 0 3 17 31 39 62 98 144 226 230 381 255
36 6 236 1 248 -7z m-1438 -1545 c153 7 231 -6 279 -46 30 -26 56 -81 42 -90
-5 -2 -32 4 -60 14 -29 10 -68 16 -88 14 -43 -5 -93 -29 -94 -46 -1 -23 -8
-92 -12 -123 -11 -83 -78 -129 -142 -99 -46 22 -67 67 -73 151 -4 58 -9 77
-26 93 -37 34 -128 36 -211 5 -26 -10 7 67 39 91 50 37 84 44 196 39 58 -3
125 -4 150 -3z m-22 -656 c48 -106 161 -198 302 -246 l55 -19 -45 5 c-84 9
-145 16 -180 20 -105 12 -243 19 -382 19 -87 1 -158 3 -158 6 0 3 21 11 46 18
158 42 266 142 305 282 l12 45 9 -35 c6 -19 22 -62 36 -95z"/>
</g>
</svg>
